<?xml version="1.0" encoding="UTF-8" standalone="no"?>
<!-- Created with Inkscape (http://www.inkscape.org/) -->

<svg
   width="210mm"
   height="297mm"
   viewBox="0 0 210 297"
   version="1.1"
   id="svg1"
   inkscape:version="1.4.2 (ebf0e940d0, 2025-05-08)"
   sodipodi:docname="Logo-Inkscape.svg"
   xmlns:inkscape="http://www.inkscape.org/namespaces/inkscape"
   xmlns:sodipodi="http://sodipodi.sourceforge.net/DTD/sodipodi-0.dtd"
   xmlns="http://www.w3.org/2000/svg"
   xmlns:svg="http://www.w3.org/2000/svg">
  <sodipodi:namedview
     id="namedview1"
     pagecolor="#505050"
     bordercolor="#ffffff"
     borderopacity="1"
     inkscape:showpageshadow="0"
     inkscape:pageopacity="0"
     inkscape:pagecheckerboard="1"
     inkscape:deskcolor="#505050"
     inkscape:document-units="mm"
     inkscape:zoom="2.1380471"
     inkscape:cx="343.77165"
     inkscape:cy="476.60315"
     inkscape:window-width="2560"
     inkscape:window-height="1403"
     inkscape:window-x="0"
     inkscape:window-y="0"
     inkscape:window-maximized="1"
     inkscape:current-layer="layer5" />
  <defs
     id="defs1">
    <inkscape:path-effect
       effect="fillet_chamfer"
       id="path-effect5"
       is_visible="true"
       lpeversion="1"
       nodesatellites_param="F,0,0,1,0,4.2074998,0,1 @ F,0,0,1,0,0,0,1 @ F,0,0,1,0,0,0,1 @ F,0,0,1,0,3.898125,0,1"
       radius="0"
       unit="px"
       method="auto"
       mode="F"
       chamfer_steps="1"
       flexible="false"
       use_knot_distance="true"
       apply_no_radius="true"
       apply_with_radius="true"
       only_selected="false"
       hide_knots="false" />
    <filter
       id="mask-powermask-path-effect18_inverse"
       inkscape:label="filtermask-powermask-path-effect18"
       style="color-interpolation-filters:sRGB"
       height="100"
       width="100"
       x="-50"
       y="-50">
      <feColorMatrix
         id="mask-powermask-path-effect18_primitive1"
         values="1"
         type="saturate"
         result="fbSourceGraphic" />
      <feColorMatrix
         id="mask-powermask-path-effect18_primitive2"
         values="-1 0 0 0 1 0 -1 0 0 1 0 0 -1 0 1 0 0 0 1 0 "
         in="fbSourceGraphic" />
    </filter>
    <clipPath
       clipPathUnits="userSpaceOnUse"
       id="clipPath18">
      <path
         style="display:inline;fill:#073b3b;fill-opacity:1;stroke-width:0.264583"
         id="path18"
         sodipodi:type="arc"
         sodipodi:cx="110.60282"
         sodipodi:cy="118.47745"
         sodipodi:rx="20.38854"
         sodipodi:ry="17.588396"
         sodipodi:start="0"
         sodipodi:end="6.2825537"
         sodipodi:arc-type="slice"
         d="m 130.99136,118.47745 a 20.38854,17.588396 0 0 1 -20.38532,17.58839 20.38854,17.588396 0 0 1 -20.391758,-17.58284 20.38854,17.588396 0 0 1 20.378878,-17.59395 20.38854,17.588396 0 0 1 20.3982,17.57729 l -20.38854,0.0111 z" />
    </clipPath>
  </defs>
  <g
     inkscape:label="Book"
     inkscape:groupmode="layer"
     id="layer1">
    <g
       inkscape:groupmode="layer"
       id="layer4"
       inkscape:label="black">
      <rect
         style="fill:#000000;stroke-width:0.264583"
         id="rect1"
         width="70.290001"
         height="92.069992"
         x="70.784996"
         y="81.427498"
         ry="9.1575003" />
      <rect
         style="fill:#000000;stroke-width:0.267584"
         id="rect5"
         width="11.771263"
         height="6.5587502"
         x="129.31876"
         y="166.69124"
         ry="0.18562317" />
    </g>
    <g
       inkscape:groupmode="layer"
       id="layer5"
       inkscape:label="white">
      <rect
         style="fill:#ffffff;stroke-width:0.130961"
         id="rect3"
         width="2.1037486"
         height="79.076256"
         x="79.571251"
         y="81.551254"
         ry="0" />
      <path
         style="fill:#ffffff;stroke-width:0.337845"
         id="rect4"
         width="58.162498"
         height="8.0437498"
         x="82.912498"
         y="163.34999"
         inkscape:path-effect="#path-effect5"
         sodipodi:type="rect"
         d="M 87.119998,163.34999 H 141.075 v 8.04375 H 86.810623 a 3.898125,3.898125 45 0 1 -3.898125,-3.89812 4.1766769,4.1766769 135.42441 0 1 4.2075,-4.14563 z"
         transform="matrix(1.0191489,0,0,1,-2.7014362,0.12375)" />
    </g>
    <g
       inkscape:groupmode="layer"
       id="layer6"
       inkscape:label="Red">
      <rect
         style="fill:#781409;fill-opacity:1;stroke-width:0.236585"
         id="rect6"
         width="6.8062496"
         height="12.56609"
         x="83.791191"
         y="166.12804"
         ry="0.14841691" />
    </g>
  </g>
  <path
     style="display:inline;fill:#073b3b;fill-opacity:1;stroke-width:0.262045"
     id="path6"
     sodipodi:type="arc"
     sodipodi:cx="110.62066"
     sodipodi:cy="118.34229"
     sodipodi:rx="20.141041"
     sodipodi:ry="17.464645"
     sodipodi:start="0"
     sodipodi:end="6.2825537"
     sodipodi:arc-type="slice"
     d="m 130.7617,118.34229 a 20.141041,17.464645 0 0 1 -20.13786,17.46465 20.141041,17.464645 0 0 1 -20.144221,-17.45913 20.141041,17.464645 0 0 1 20.131501,-17.47016 20.141041,17.464645 0 0 1 20.15058,17.45361 l -20.14104,0.011 z"
     mask="none"
     clip-path="none" />
  <g
     inkscape:groupmode="layer"
     id="layer2"
     inkscape:label="Globe">
    <g
       inkscape:groupmode="layer"
       id="layer8"
       inkscape:label="Land"
       clip-path="url(#clipPath18)">
      <path
         sodipodi:type="star"
         style="fill:#011500;fill-opacity:1;stroke-width:0.264583"
         id="path12"
         inkscape:flatsided="true"
         sodipodi:sides="5"
         sodipodi:cx="92.754732"
         sodipodi:cy="102.20521"
         sodipodi:r1="13.548223"
         sodipodi:r2="10.960743"
         sodipodi:arg1="1.0724805"
         sodipodi:arg2="1.7007991"
         inkscape:rounded="0"
         inkscape:randomized="0"
         d="M 99.230061,114.10581 83.437568,112.0411 80.521077,96.383519 94.511079,88.771311 106.07387,99.724292 Z"
         inkscape:transform-center-x="-0.54274171"
         inkscape:transform-center-y="-0.76664498" />
      <path
         style="fill:#011500;fill-opacity:1;stroke-width:0.268534"
         d="m 131.28582,114.63085 -12.97979,11.20057 5.94908,11.02557 10.99676,-3.50018 z"
         id="path13" />
      <path
         style="fill:#011500;fill-opacity:1;stroke-width:0.264583"
         d="m 103.43028,119.88111 5.42527,0.87505 2.62514,6.47533 -8.57544,2.27512 -4.900251,-2.27512 -2.975152,-6.82535 3.150161,-3.8502 0.875043,5.7753 1.575079,-3.67519 z"
         id="path14" />
      <path
         style="fill:#011500;fill-opacity:1;stroke-width:0.264583"
         d="m 117.08097,105.00536 -7.00036,2.62513 3.67519,6.12531 9.27547,-1.22506 -7.70039,-2.10011 7.35038,-2.1001 -0.52503,-4.37523 -10.67554,-1.75009 -3.8502,2.97515 z"
         id="path15" />
      <path
         style="fill:#011500;fill-opacity:1;stroke-width:0.264583"
         d="m 116.20593,116.73095 -4.55024,-0.35001 1.05006,6.12531 5.9503,-1.9251 z"
         id="path16" />
      <path
         style="fill:#011500;fill-opacity:1;stroke-width:0.264583"
         d="m 104.65534,111.48069 -0.17501,4.37522 4.0252,-0.52503 -1.22506,-3.85019 z"
         id="path17" />
    </g>
  </g>
</svg>
