<?xml version="1.0" encoding="UTF-8" standalone="no"?>
<!-- Created with Inkscape (http://www.inkscape.org/) -->

<svg
   width="70.305016mm"
   height="97.266632mm"
   viewBox="0 0 70.305016 97.266632"
   version="1.1"
   id="svg1"
   xmlns="http://www.w3.org/2000/svg"
   xmlns:svg="http://www.w3.org/2000/svg">
  <defs
     id="defs1">
    <clipPath
       clipPathUnits="userSpaceOnUse"
       id="clipPath18">
      <path
         style="display:inline;fill:#073b3b;fill-opacity:1;stroke-width:0.264583"
         id="path18"
         d="m 130.99136,118.47745 a 20.38854,17.588396 0 0 1 -20.38532,17.58839 20.38854,17.588396 0 0 1 -20.391758,-17.58284 20.38854,17.588396 0 0 1 20.378878,-17.59395 20.38854,17.588396 0 0 1 20.3982,17.57729 l -20.38854,0.0111 z" />
    </clipPath>
  </defs>
  <g
     id="layer1"
     transform="translate(-70.784999,-81.427499)">
    <g
       id="layer4">
      <rect
         style="fill:#000000;stroke-width:0.264583"
         id="rect1"
         width="70.290001"
         height="92.069992"
         x="70.784996"
         y="81.427498"
         ry="9.1575003" />
      <rect
         style="fill:#000000;stroke-width:0.267584"
         id="rect5"
         width="11.771263"
         height="6.5587502"
         x="129.31876"
         y="166.69124"
         ry="0.18562317" />
    </g>
    <g
       id="layer5">
      <rect
         style="fill:#ffffff;stroke-width:0.130961"
         id="rect3"
         width="2.1037486"
         height="79.076256"
         x="79.571251"
         y="81.551254"
         ry="0" />
      <path
         style="fill:#ffffff;stroke-width:0.337845"
         id="rect4"
         width="58.162498"
         height="8.0437498"
         x="82.912498"
         y="163.34999"
         d="M 87.119998,163.34999 H 141.075 v 8.04375 H 86.810623 a 3.898125,3.898125 45 0 1 -3.898125,-3.89812 4.1766769,4.1766769 135.42441 0 1 4.2075,-4.14563 z"
         transform="matrix(1.0191489,0,0,1,-2.7014362,0.12375)" />
    </g>
    <g
       id="layer6">
      <rect
         style="fill:#781409;fill-opacity:1;stroke-width:0.236585"
         id="rect6"
         width="6.8062496"
         height="12.56609"
         x="83.791191"
         y="166.12804"
         ry="0.14841691" />
    </g>
  </g>
  <path
     style="display:inline;fill:#073b3b;fill-opacity:1;stroke-width:0.262045"
     id="path6"
     d="M 59.976704,36.914795 A 20.141041,17.464645 0 0 1 39.838843,54.37944 20.141041,17.464645 0 0 1 19.694623,36.92031 20.141041,17.464645 0 0 1 39.826122,19.450151 20.141041,17.464645 0 0 1 59.9767,36.903764 l -20.141037,0.01103 z"
     mask="none"
     clip-path="none" />
  <g
     id="layer2"
     transform="translate(-70.784999,-81.427499)">
    <g
       id="layer8"
       clip-path="url(#clipPath18)">
      <path
         style="fill:#011500;fill-opacity:1;stroke-width:0.264583"
         id="path12"
         d="M 99.230061,114.10581 83.437568,112.0411 80.521077,96.383519 94.511079,88.771311 106.07387,99.724292 Z" />
      <path
         style="fill:#011500;fill-opacity:1;stroke-width:0.268534"
         d="m 131.28582,114.63085 -12.97979,11.20057 5.94908,11.02557 10.99676,-3.50018 z"
         id="path13" />
      <path
         style="fill:#011500;fill-opacity:1;stroke-width:0.264583"
         d="m 103.43028,119.88111 5.42527,0.87505 2.62514,6.47533 -8.57544,2.27512 -4.900251,-2.27512 -2.975152,-6.82535 3.150161,-3.8502 0.875043,5.7753 1.575079,-3.67519 z"
         id="path14" />
      <path
         style="fill:#011500;fill-opacity:1;stroke-width:0.264583"
         d="m 117.08097,105.00536 -7.00036,2.62513 3.67519,6.12531 9.27547,-1.22506 -7.70039,-2.10011 7.35038,-2.1001 -0.52503,-4.37523 -10.67554,-1.75009 -3.8502,2.97515 z"
         id="path15" />
      <path
         style="fill:#011500;fill-opacity:1;stroke-width:0.264583"
         d="m 116.20593,116.73095 -4.55024,-0.35001 1.05006,6.12531 5.9503,-1.9251 z"
         id="path16" />
      <path
         style="fill:#011500;fill-opacity:1;stroke-width:0.264583"
         d="m 104.65534,111.48069 -0.17501,4.37522 4.0252,-0.52503 -1.22506,-3.85019 z"
         id="path17" />
    </g>
  </g>
</svg>
